<?xml version="1.0" encoding="utf-8"?>
<!-- Generator: Adobe Illustrator 26.1.0, SVG Export Plug-In . SVG Version: 6.00 Build 0)  -->
<svg version="1.1" id="Слой_1" xmlns="http://www.w3.org/2000/svg" xmlns:xlink="http://www.w3.org/1999/xlink" x="0px" y="0px"
	 viewBox="0 0 128 128" style="enable-background:new 0 0 128 128;" xml:space="preserve">
<style type="text/css">
	.st0{fill:#B3B3B3;}
	.st1{fill:#B3B3B3;stroke:#B3B3B3;stroke-miterlimit:10;}
</style>
<g>
	<path class="st0" d="M37.8,70.7c-2.5,0-4.3-0.8-5.2-2.3s-0.6-3.5,0.6-5.6l27-46.8c1.2-2.1,2.9-3.3,4.6-3.3c1.7,0,3.3,1.2,4.6,3.3
		l27,46.8c1.2,2.1,1.4,4.1,0.6,5.6c-0.9,1.5-2.7,2.3-5.2,2.3H37.8z"/>
	<path class="st0" d="M64.9,13.1c1.5,0,3,1.1,4.1,3.1L96,63c1.1,2,1.4,3.8,0.6,5.1c-0.8,1.3-2.4,2-4.7,2H37.8c-2.3,0-4-0.7-4.7-2
		c-0.8-1.3-0.6-3.1,0.6-5.1l27-46.8C61.9,14.2,63.3,13.1,64.9,13.1 M64.9,12.1c-1.8,0-3.6,1.2-5,3.6l-27,46.8
		c-2.8,4.8-0.5,8.7,5,8.7h54.1c5.5,0,7.8-3.9,5-8.7l-27-46.8C68.5,13.3,66.7,12.1,64.9,12.1L64.9,12.1z"/>
</g>
<path class="st1" d="M69.5,115h-9.3c-2.5,0-4.5-2-4.5-4.5V48.2c0-2.5,2-4.5,4.5-4.5h9.3c2.5,0,4.5,2,4.5,4.5v62.3
	C74,113,72,115,69.5,115z"/>
</svg>
